HIERARCHY
ROOT Hips
{
	OFFSET 0.00000 0.00000 0.00000
	CHANNELS 6 Xposition Yposition Zposition Yrotation Zrotation Xrotation 
	JOINT Lumbar
	{
		OFFSET 0 0 0
		CHANNELS 3 Zrotation Xrotation Yrotation
		JOINT Neck
		{
			OFFSET 0.00 0.2701 0.00
			CHANNELS 3 Zrotation Xrotation Yrotation
			End Site
			{
				OFFSET 0.00 0.1379 0.00
			}
		}
		JOINT RightShoulder
		{
			OFFSET 0.0119 0.2289 0.1181
			CHANNELS 3 Zrotation Xrotation Yrotation
			JOINT RightElbow
			{
				OFFSET 0.00 -0.1475 0.00
				CHANNELS 2 Zrotation Yrotation
				JOINT RightWrist
				{
					OFFSET 0.00 -0.1605 0.00
					CHANNELS 2 Zrotation Xrotation
					End Site
					{
						OFFSET 0.0040 -0.1068 0.0006
					}
				}
			}
		}
		JOINT LeftShoulder
		{
			OFFSET 0.0119 0.2289 -0.1181
			CHANNELS 3 Zrotation Xrotation Yrotation
			JOINT LeftElbow
			{
				OFFSET 0.00 -0.1475 0.00
				CHANNELS 2 Zrotation Yrotation
				JOINT LeftWrist
				{
					OFFSET 0.00 -0.1605 0.00
					CHANNELS 2 Zrotation Xrotation
					End Site
					{
						OFFSET 0.0040 -0.1068 -0.0006
					}
				}
			}
		}
	}
	JOINT RightHip
	{
		OFFSET 0.0316 -0.0424 0.0458
		CHANNELS 3 Zrotation Xrotation Yrotation
		JOINT RightKnee
		{
			OFFSET 0.00 -0.2438 0.00
			CHANNELS 1 Zrotation
			JOINT RightAnkle
			{
				OFFSET 0.00 -0.2449 0.00
				CHANNELS 3 Zrotation Xrotation Yrotation
				End Site
				{
					OFFSET 0.1237 -0.0542 0.0051
				}
			}
		}
	}
	JOINT LeftHip
	{
		OFFSET 0.0316 -0.0424 -0.0458
		CHANNELS 3 Zrotation Xrotation Yrotation
		JOINT LeftKnee
		{
			OFFSET 0.00 -0.2438 0.00
			CHANNELS 1 Zrotation
			JOINT LeftAnkle
			{
				OFFSET 0.00 -0.2449 0.00
				CHANNELS 3 Zrotation Xrotation Yrotation
				End Site
				{
					OFFSET 0.1237 -0.0542 -0.0051
				}
			}
		}
	}
}
MOTION
Frames: 31
Frame Time: 0.02
0 0.57926 0 210.44344 0 -5.20786 8.48716 5.85848 -1.06284 -10.23068 -1.38819 -2.91796 61.4981 -12.76838 30.05382 39.07775 121.46195 -33.75757 -8.78043 63.2502 13.67892 -40.68803 49.86848 -104.08118 -35.32832 5.75338 1.53022 10.35158 18.85002 -13.71208 1.85479 -3.37701 -17.03982 14.47717 1.14212 -21.82444 -29.84508 6.0084 5.90022 14.34194
-0.00097 0.57952 -0.0013 210.55333 0 -5.12863 8.78409 5.85371 -1.04737 -10.90158 -1.28809 -2.82454 61.95792 -13.38137 30.34764 40.80677 122.61206 -36.38738 -8.77313 63.71447 14.19575 -40.3063 51.72046 -103.99987 -35.78543 5.72275 1.07402 10.07986 17.04941 -12.77672 1.71025 -3.40912 -15.02209 14.40549 0.82203 -21.66353 -30.56133 6.43501 6.06587 14.41072
-0.00193 0.57977 -0.0026 210.66239 0 -5.04975 9.0803 5.84887 -1.03302 -11.57089 -1.18819 -2.73116 62.41292 -13.99493 30.63735 42.53262 123.75055 -39.00102 -8.76513 64.17156 14.71508 -39.92008 53.5699 -103.91514 -36.23739 5.69187 0.6184 9.80991 15.26191 -11.84417 1.56591 -3.43988 -13.01892 14.32825 0.50479 -21.49917 -31.26485 6.8591 6.23081 14.47811
-0.00291 0.58001 -0.00387 210.76826 0 -4.97295 9.37691 5.84565 -1.02239 -12.24125 -1.08763 -2.6357 62.86474 -14.61224 30.91983 44.24308 124.85086 -41.56469 -8.75417 64.61621 15.24257 -39.51802 55.41212 -103.81773 -36.67135 5.66004 0.16077 9.54543 13.50264 -10.91294 1.42054 -3.46595 -11.04597 14.23173 0.1953 -21.32048 -31.93326 7.27918 6.39575 14.54252
-0.00385 0.5803 -0.00527 210.88995 0 -4.8869 9.67188 5.83621 -0.99131 -12.90711 -0.99004 -2.54966 63.34748 -15.20423 31.24822 46.01137 126.14985 -44.3799 -8.75876 65.1411 15.71858 -39.20702 57.27432 -103.78949 -37.1983 5.63366 -0.28604 9.25323 11.58603 -9.97374 1.28012 -3.51731 -8.90306 14.2417 -0.15585 -21.21894 -32.79824 7.7228 6.56213 14.62504
-0.00487 0.58049 -0.00638 210.97878 0 -4.8193 9.96966 5.83832 -1.00402 -13.58107 -0.88663 -2.44485 63.75477 -15.85287 31.474 47.67167 127.02977 -46.6692 -8.73055 65.48602 16.30857 -38.69887 59.10481 -103.61365 -37.52968 5.5955 -0.75544 9.01912 10.00937 -9.053 1.12974 -3.51483 -7.12846 14.0235 -0.41816 -20.95347 -33.23942 8.11464 6.72432 14.66756
-0.00612 0.58042 -0.00667 210.96946 0 -4.81293 10.28641 5.88743 -1.13825 -14.30324 -0.7603 -2.27425 64.0362 -16.65149 31.45632 48.93587 126.71483 -47.44086 -8.60712 65.40315 17.19418 -37.65092 60.79243 -103.02414 -37.29825 5.52531 -1.30129 8.95177 9.31431 -8.15382 0.94368 -3.36119 -6.29874 13.17062 -0.43677 -20.21815 -32.54071 8.38207 6.88723 14.61018
-0.00745 0.58026 -0.00665 210.92802 0 -4.82335 10.60394 5.94569 -1.31667 -15.02933 -0.62911 -2.08692 64.2254 -17.50973 31.32811 50.1116 125.98439 -47.694 -8.45157 65.12331 18.19896 -36.40081 62.46063 -102.28794 -36.87451 5.44329 -1.86783 8.94176 8.96977 -7.27777 0.74892 -3.1538 -5.85053 12.08761 -0.36555 -19.31967 -31.40856 8.59401 7.04378 14.51041
-0.00875 0.58015 -0.00676 210.9065 0 -4.81929 10.91465 5.98973 -1.47476 -15.73818 -0.50455 -1.91634 64.40502 -18.3455 31.22395 51.39164 125.46672 -48.22836 -8.31321 64.89151 19.16334 -35.2402 64.1752 -101.61962 -36.55165 5.36602 -2.4166 8.90137 8.50429 -6.40903 0.56318 -2.97198 -5.2772 11.11129 -0.3342 -18.506 -30.45293 8.81966 7.19553 14.4231
-0.01005 0.58 -0.00691 210.86378 0 -4.84388 11.25403 6.07537 -1.63418 -16.51354 -0.36177 -1.70787 64.80693 -19.16023 31.22858 52.3962 124.8438 -48.57205 -8.16276 64.84478 20.07119 -34.09424 65.72888 -100.93855 -36.16686 5.29055 -3.00117 8.87949 7.88697 -5.46484 0.35589 -2.784 -4.51138 10.12475 -0.3063 -17.64737 -29.58046 9.0942 7.37995 14.36454
-0.01135 0.57991 -0.0069 210.85597 0 -4.8131 11.53208 6.07764 -1.80097 -17.14957 -0.25528 -1.57347 64.71765 -20.03469 30.98249 53.95942 124.34664 -49.18739 -8.03133 64.35321 21.12301 -32.8641 67.61579 -100.25882 -35.8717 5.20961 -3.51539 8.83235 7.65676 -4.68376 0.19166 -2.59776 -4.22329 9.10664 -0.25057 -16.84371 -28.43593 9.25328 7.49449 14.23596
-0.01265 0.58 -0.00648 210.96606 0 -4.62291 11.65627 5.83837 -1.98009 -17.41529 -0.25454 -1.65507 63.34906 -21.04416 30.05243 57.03465 124.25264 -50.69929 -7.9476 62.78983 22.55998 -31.4991 70.40236 -99.53551 -35.81589 5.1071 -3.83643 8.70438 8.51855 -4.34314 0.14617 -2.41474 -5.28133 8.04201 -0.13403 -16.23069 -26.61092 9.1113 7.42069 13.92515
-0.01395 0.58015 -0.00591 211.10969 0 -4.37707 11.71582 5.51689 -2.16445 -17.53792 -0.28981 -1.81041 61.47967 -22.11393 28.87708 60.68273 124.30734 -52.49784 -7.8864 60.76598 24.13339 -30.04777 73.52741 -98.83382 -35.86636 5.00124 -4.08477 8.54867 9.7396 -4.16672 0.14469 -2.23782 -6.78634 6.95658 0.00641 -15.67873 -24.53389 8.85448 7.27636 13.54535
-0.01523 0.58027 -0.0054 211.22924 0 -4.15802 11.79466 5.23864 -2.34476 -17.71589 -0.30557 -1.92713 59.80322 -23.16697 27.8267 64.10565 124.32494 -54.15364 -7.82334 58.88107 25.63487 -28.6038 76.517 -98.17714 -35.90546 4.9031 -4.3624 8.40349 10.72206 -3.91783 0.12458 -2.06809 -8.00541 5.89076 0.13184 -15.09962 -22.5951 8.6472 7.16214 13.19645
-0.01659 0.58039 -0.00489 211.38564 0 -3.93234 11.91603 4.93473 -2.53421 -17.93447 -0.33391 -2.06478 58.26782 -24.17964 26.71669 67.38603 124.20247 -55.84818 -7.7242 57.28355 27.18735 -27.28555 79.43783 -97.28507 -35.78548 4.77845 -4.65675 8.26825 12.02601 -3.66042 0.09852 -1.85549 -9.57979 4.77355 0.27744 -14.51263 -20.54019 8.44821 7.05533 12.84736
-0.01777 0.58053 -0.00437 211.47282 0 -3.70811 11.93356 4.66615 -2.70463 -18.03497 -0.34535 -2.17661 56.32345 -25.28666 25.67257 71.08911 124.40857 -57.53167 -7.70545 54.98397 28.65825 -25.68981 82.57069 -96.88879 -36.02017 4.70827 -4.89854 8.106 12.75207 -3.45974 0.09526 -1.73299 -10.52487 3.76204 0.38612 -13.95825 -18.67406 8.20662 6.91714 12.4836
-0.01846 0.58072 -0.00386 211.36846 0 -3.49216 11.67918 4.50184 -2.82664 -17.83986 -0.29554 -2.19912 53.35109 -26.66628 24.88348 75.91546 125.52149 -59.16141 -7.908 50.83251 29.92246 -23.33186 86.30627 -97.87067 -37.24745 4.79053 -5.01436 7.867 11.69927 -3.37317 0.14538 -1.86995 -9.53968 3.04382 0.38136 -13.48398 -17.38403 7.86519 6.7033 12.08969
-0.01896 0.58093 -0.00335 211.19231 0 -3.28125 11.32276 4.37825 -2.92814 -17.53176 -0.22868 -2.19329 49.98943 -28.13272 24.16706 81.12838 126.95545 -60.76389 -8.18997 45.99811 31.08912 -20.70289 90.22394 -99.34885 -38.82172 4.92758 -5.07938 7.60323 10.06905 -3.33845 0.21665 -2.0957 -7.92028 2.43483 0.33917 -13.04058 -16.29658 7.48706 6.46147 11.68476
-0.01954 0.58113 -0.00282 211.04362 0 -3.07407 11.01363 4.24497 -3.03517 -17.27831 -0.17332 -2.20034 46.81963 -29.54247 23.40963 86.10357 128.22081 -62.35086 -8.43252 41.49194 32.26633 -18.20888 93.99402 -100.59106 -40.21226 5.0388 -5.16672 7.3563 8.76313 -3.28125 0.27761 -2.27266 -6.64273 1.77903 0.31742 -12.58022 -15.12252 7.1327 6.23665 11.28943
-0.02015 0.58136 -0.00234 210.91653 0 -2.83954 10.69815 4.0722 -3.15817 -17.0057 -0.10297 -2.20945 43.56681 -31.03019 22.67817 91.36692 129.5864 -64.06571 -8.68971 36.88638 33.59283 -15.65759 98.05385 -101.87779 -41.716 5.15376 -5.25503 7.08459 7.20641 -3.22475 0.34346 -2.48404 -5.15087 1.10923 0.28226 -12.13309 -13.9146 6.74422 5.99146 10.8725
-0.02065 0.58152 -0.00178 210.72867 0 -2.66391 10.37277 3.99168 -3.2433 -16.74832 -0.05983 -2.20719 40.40404 -32.37151 21.91195 96.10657 130.81826 -65.50353 -8.93518 32.34144 34.58113 -13.16784 101.54373 -103.18956 -43.0654 5.27408 -5.32988 6.8593 6.03307 -3.17754 0.40308 -2.64645 -3.95359 0.49633 0.26557 -11.66641 -12.83086 6.41976 5.78271 10.49858
-0.0209 0.58149 -0.00101 210.37548 0 -2.65002 10.04322 4.16263 -3.22547 -16.5588 -0.09157 -2.17494 37.56311 -33.31911 21.04356 99.36885 131.59534 -66.18603 -9.12671 28.05145 34.67797 -10.86921 103.45837 -104.44633 -43.89957 5.39483 -5.38293 6.76534 6.02972 -3.13778 0.4447 -2.63664 -3.67822 0.0015 0.31087 -11.12574 -12.02356 6.28038 5.68421 10.24911
-0.02106 0.58138 -0.00018 209.9661 0 -2.69549 9.70798 4.42418 -3.17064 -16.38963 -0.15195 -2.13277 34.83386 -34.10983 20.13707 102.07549 132.22664 -66.58841 -9.30377 23.86446 34.43371 -8.65132 104.78343 -105.71054 -44.5664 5.51917 -5.42396 6.71955 6.43336 -3.1058 0.47849 -2.57677 -3.72493 -0.43739 0.37557 -10.56641 -11.33874 6.2074 5.62326 10.04326
-0.02125 0.58131 0.00063 209.59241 0 -2.71384 9.37677 4.64027 -3.13518 -16.21302 -0.2019 -2.09856 32.0693 -34.95158 19.24124 104.99282 132.92948 -67.11604 -9.48901 19.68327 34.33271 -6.42576 106.34841 -106.97439 -45.31244 5.64269 -5.469 6.65384 6.67163 -3.07304 0.51252 -2.55046 -3.65595 -0.89367 0.43005 -10.02343 -10.61021 6.10507 5.5436 9.81561
-0.02147 0.58122 0.00145 209.17407 0 -2.73288 9.03553 4.87582 -3.08903 -16.02454 -0.24027 -2.04938 29.22169 -35.88318 18.37455 108.10285 133.62426 -67.65279 -9.67114 15.25079 34.27788 -4.06577 108.03812 -108.24715 -46.05856 5.76521 -5.51857 6.57924 6.81758 -3.0305 0.5605 -2.48377 -3.44669 -1.38008 0.48916 -9.44815 -9.83799 5.99792 5.46963 9.59521
-0.02161 0.58114 0.00225 208.83544 0 -2.76461 8.7156 5.09185 -3.05561 -15.86737 -0.30987 -2.02871 26.58365 -36.58771 17.43886 110.6716 134.29325 -68.10279 -9.85415 11.38148 34.04731 -2.01147 109.32577 -109.4912 -46.75864 5.88928 -5.55629 6.53455 7.24702 -3.00959 0.57835 -2.48546 -3.60041 -1.79187 0.54371 -8.93552 -9.18343 5.91701 5.39336 9.37107
-0.02154 0.5811 0.00296 208.73853 0 -2.81606 8.45284 5.23141 -3.07543 -15.79014 -0.45784 -2.09501 24.45917 -36.71602 16.30901 111.90187 134.95762 -68.39439 -10.05233 8.99341 33.41364 -0.75828 109.64341 -110.69826 -47.38367 6.02221 -5.56663 6.564 8.47549 -3.04514 0.50534 -2.71119 -4.80197 -2.0114 0.58115 -8.59841 -8.82234 5.89352 5.29966 9.11899
-0.02139 0.58107 0.00365 208.72274 0 -2.87834 8.2129 5.34801 -3.10788 -15.7446 -0.63638 -2.18943 22.55177 -36.61853 15.1139 112.60031 135.59396 -68.60607 -10.24984 7.18183 32.61581 0.18404 109.57627 -111.86542 -47.9639 6.15529 -5.56533 6.62141 9.95815 -3.10212 0.4038 -3.00302 -6.33943 -2.15815 0.61345 -8.32528 -8.57497 5.89418 5.20288 8.86303
-0.02127 0.58103 0.00435 208.66487 0 -2.93621 7.96497 5.47528 -3.12858 -15.68616 -0.80173 -2.26723 20.5706 -36.61575 13.95585 113.52753 136.22087 -68.84619 -10.44109 5.14083 31.89422 1.25242 109.68729 -113.01939 -48.55608 6.28442 -5.56801 6.66389 11.24922 -3.15002 0.32171 -3.24869 -7.64249 -2.3389 0.6482 -8.02394 -8.2752 5.88316 5.10884 8.61345
-0.02115 0.58098 0.00506 208.62664 0 -2.99414 7.70641 5.60507 -3.17283 -15.62199 -0.96562 -2.36071 18.48408 -36.64069 12.76206 114.49206 136.93534 -69.10989 -10.65925 2.96256 31.15295 2.38358 109.76504 -114.30616 -49.17981 6.43002 -5.57562 6.71727 12.86833 -3.19573 0.21268 -3.55948 -9.29423 -2.51434 0.68329 -7.71803 -7.98183 5.87722 5.01028 8.34584
-0.02103 0.58095 0.00574 208.56801 0 -3.05358 7.47587 5.72256 -3.17218 -15.57704 -1.13879 -2.42859 16.67206 -36.55663 11.63174 115.25735 137.46411 -69.30902 -10.82184 1.20949 30.41914 3.3097 109.827 -115.30671 -49.72723 6.54139 -5.57055 6.75414 13.86807 -3.25062 0.15221 -3.75253 -10.30451 -2.68352 0.71602 -7.43741 -7.70179 5.86582 4.92012 8.11439
